<svg width="140" height="155" viewBox="0 0 140 155" fill="none" xmlns="http://www.w3.org/2000/svg">
<path d="M46.4013 69.75H30.9342V85.25H46.4013V69.75ZM77.3355 69.75H61.8684V85.25H77.3355V69.75ZM108.27 69.75H92.8025V85.25H108.27V69.75ZM123.737 15.5H116.003V0H100.536V15.5H38.6677V0H23.2006V15.5H15.4671C6.88286 15.5 0.0773354 22.475 0.0773354 31L0 139.5C0 148.025 6.88286 155 15.4671 155H123.737C132.244 155 139.204 148.025 139.204 139.5V31C139.204 22.475 132.244 15.5 123.737 15.5ZM123.737 139.5H15.4671V54.25H123.737V139.5Z" fill="#E7E7FF"/>
</svg>
