<svg width="40" height="31" viewBox="0 0 40 31" fill="none" xmlns="http://www.w3.org/2000/svg">
<path d="M36.3636 0.909091C34.3455 0.272727 32.1273 0 30 0C26.4545 0 22.6364 0.727273 20 2.72727C17.3636 0.727273 13.5455 0 10 0C6.45455 0 2.63636 0.727273 0 2.72727V29.3636C0 29.8182 0.454545 30.2727 0.909091 30.2727C1.09091 30.2727 1.18182 30.1818 1.36364 30.1818C3.81818 29 7.36364 28.1818 10 28.1818C13.5455 28.1818 17.3636 28.9091 20 30.9091C22.4545 29.3636 26.9091 28.1818 30 28.1818C33 28.1818 36.0909 28.7273 38.6364 30.0909C38.8182 30.1818 38.9091 30.1818 39.0909 30.1818C39.5455 30.1818 40 29.7273 40 29.2727V2.72727C38.9091 1.90909 37.7273 1.36364 36.3636 0.909091ZM36.3636 25.4545C34.3636 24.8182 32.1818 24.5455 30 24.5455C26.9091 24.5455 22.4545 25.7273 20 27.2727V6.36364C22.4545 4.81818 26.9091 3.63636 30 3.63636C32.1818 3.63636 34.3636 3.90909 36.3636 4.54545V25.4545Z" fill="#605AF1"/>
</svg>
