<svg width="40" height="31" viewBox="0 0 40 31" fill="none" xmlns="http://www.w3.org/2000/svg">
<path d="M36.3636 0.909091C34.3455 0.272727 32.1273 0 30 0C26.4545 0 22.6364 0.727273 20 2.72727C17.3636 0.727273 13.5455 0 10 0C6.45455 0 2.63636 0.727273 0 2.72727V29.3636C0 29.8182 0.454545 30.2727 0.909091 30.2727C1.09091 30.2727 1.18182 30.1818 1.36364 30.1818C3.81818 29 7.36364 28.1818 10 28.1818C13.5455 28.1818 17.3636 28.9091 20 30.9091C22.4545 29.3636 26.9091 28.1818 30 28.1818C33 28.1818 36.0909 28.7273 38.6364 30.0909C38.8182 30.1818 38.9091 30.1818 39.0909 30.1818C39.5455 30.1818 40 29.7273 40 29.2727V2.72727C38.9091 1.90909 37.7273 1.36364 36.3636 0.909091ZM36.3636 25.4545C34.3636 24.8182 32.1818 24.5455 30 24.5455C26.9091 24.5455 22.4545 25.7273 20 27.2727V6.36364C22.4545 4.81818 26.9091 3.63636 30 3.63636C32.1818 3.63636 34.3636 3.90909 36.3636 4.54545V25.4545Z" fill="#9F9CF0"/>
<path d="M30 10.9091C31.6 10.9091 33.1454 11.0727 34.5454 11.3818V8.61819C33.1091 8.34546 31.5636 8.18182 30 8.18182C26.9091 8.18182 24.1091 8.7091 21.8182 9.69091V12.7091C23.8727 11.5455 26.7273 10.9091 30 10.9091Z" fill="#9F9CF0"/>
<path d="M21.8182 14.5273V17.5455C23.8727 16.3818 26.7273 15.7455 30 15.7455C31.6 15.7455 33.1454 15.9091 34.5454 16.2182V13.4546C33.1091 13.1818 31.5636 13.0182 30 13.0182C26.9091 13.0182 24.1091 13.5637 21.8182 14.5273Z" fill="#9F9CF0"/>
<path d="M30 17.8727C26.9091 17.8727 24.1091 18.4 21.8182 19.3818V22.4C23.8727 21.2364 26.7273 20.6 30 20.6C31.6 20.6 33.1454 20.7637 34.5454 21.0727V18.3091C33.1091 18.0182 31.5636 17.8727 30 17.8727Z" fill="#9F9CF0"/>
</svg>
