<svg width="39" height="39" viewBox="0 0 39 39" fill="none" xmlns="http://www.w3.org/2000/svg">
<circle cx="19.5" cy="19.5" r="18.5" stroke="#907EFF" stroke-width="2"/>
<path d="M23.931 12.4012L22.3532 7.54508C21.4551 4.78116 17.5449 4.78114 16.6468 7.54508L15.069 12.4012C14.9351 12.8132 14.5511 13.0922 14.1179 13.0922L9.01188 13.0922C6.10571 13.0922 4.89737 16.811 7.24852 18.5193L11.3794 21.5205C11.7299 21.7752 11.8765 22.2265 11.7427 22.6385L10.1648 27.4947C9.26676 30.2586 12.4302 32.557 14.7813 30.8488L18.9122 27.8475C19.2627 27.5929 19.7373 27.5929 20.0878 27.8475L24.2187 30.8488C26.5698 32.557 29.7332 30.2586 28.8352 27.4947L27.2573 22.6385C27.1235 22.2265 27.2701 21.7752 27.6206 21.5205L31.7515 18.5193C34.1026 16.8111 32.8943 13.0922 29.9881 13.0922L24.8821 13.0922C24.4489 13.0922 24.0649 12.8132 23.931 12.4012Z" fill="#CFCDFF" stroke="#907EFF" stroke-width="2"/>
</svg>
