<svg width="201" height="155" viewBox="0 0 201 155" fill="none" xmlns="http://www.w3.org/2000/svg">
<path d="M182.727 4.55882C172.586 1.36765 161.44 0 150.75 0C132.934 0 113.748 3.64706 100.5 13.6765C87.2523 3.64706 68.0659 0 50.25 0C32.4341 0 13.2477 3.64706 0 13.6765V147.25C0 149.529 2.28409 151.809 4.56818 151.809C5.48182 151.809 5.93864 151.353 6.85227 151.353C19.1864 145.426 37.0023 141.324 50.25 141.324C68.0659 141.324 87.2523 144.971 100.5 155C112.834 147.25 135.218 141.324 150.75 141.324C165.825 141.324 181.357 144.059 194.148 150.897C195.061 151.353 195.518 151.353 196.432 151.353C198.716 151.353 201 149.074 201 146.794V13.6765C195.518 9.57353 189.58 6.83824 182.727 4.55882ZM182.727 127.647C172.677 124.456 161.714 123.088 150.75 123.088C135.218 123.088 112.834 129.015 100.5 136.765V31.9118C112.834 24.1618 135.218 18.2353 150.75 18.2353C161.714 18.2353 172.677 19.6029 182.727 22.7941V127.647Z" fill="#E7E7FF"/>
</svg>
